<svg xmlns="http://www.w3.org/2000/svg" xmlns:xlink="http://www.w3.org/1999/xlink" width="30" height="30" viewBox="0 0 30 30">
  <defs>
    <clipPath id="clip-logo_ezform_2">
      <rect width="30" height="30"/>
    </clipPath>
  </defs>
  <g id="logo_ezform_2" clip-path="url(#clip-logo_ezform_2)">
    <path id="빼기_1" data-name="빼기 1" d="M-57-34a15.006,15.006,0,0,1-7.353-1.923A15.108,15.108,0,0,1-69.691-41h11.74l-1.884,2.583V-36h10.322A14.993,14.993,0,0,1-57-34Zm11.45-5.31h-8.875l10.359-14.327V-56H-59.82v2.509H-65.7v-5h9.668V-62h-8.459A15,15,0,0,1-57-64a14.9,14.9,0,0,1,10.606,4.393A14.9,14.9,0,0,1-42-49a15.006,15.006,0,0,1-3.549,9.689ZM-70-41.512l0,0A14.993,14.993,0,0,1-72-49a15,15,0,0,1,2-7.488v14.975Zm14-2.164v-.8h-9.7V-50.1h8.262v-2.561h7.987L-56-43.679Z" transform="translate(72 64)" fill="#3a57e8"/>
    <path id="빼기_2" data-name="빼기 2" d="M-57-34a15.006,15.006,0,0,1-7.353-1.923A15.108,15.108,0,0,1-69.691-41h11.74l-1.884,2.583V-36h10.322A14.993,14.993,0,0,1-57-34Zm11.45-5.31h-8.875l10.359-14.327V-56H-59.82v2.509H-65.7v-5h9.668V-62h-8.459A15,15,0,0,1-57-64a14.9,14.9,0,0,1,10.606,4.393A14.9,14.9,0,0,1-42-49a15.006,15.006,0,0,1-3.549,9.689ZM-70-41.512l0,0A14.993,14.993,0,0,1-72-49a15,15,0,0,1,2-7.488v14.975Zm14-2.164v-.8h-9.7V-50.1h8.262v-2.561h7.987L-56-43.679Z" transform="translate(72 64)" fill="#3a57e8"/>
  </g>
</svg>
